<svg xmlns="http://www.w3.org/2000/svg" class="icon icon-tabler icon-tabler-snowflake" width="250px" height="250px" viewBox="0 0 24 24" stroke-width="2.01" stroke="rgba(148, 214, 255, 1)" fill="none" stroke-linecap="round" stroke-linejoin="round"><rect x="0" y="0" width="100%" height="100%" stroke="none" stroke-width="0" fill="rgba(54, 64, 67, 1)" rx="5" ry="5"/><g transform="translate(2.40, 2.40) scale(0.8)"><path stroke="none" d="M0 0h24v24H0z" fill="none"/><path d="M10 4l2 1l2 -1m-2 -2v6.5l3 1.72"/><path d="M10 4l2 1l2 -1m-2 -2v6.5l3 1.72" transform="rotate(60 12 12)"/><path d="M10 4l2 1l2 -1m-2 -2v6.5l3 1.72" transform="rotate(120 12 12)"/><path d="M10 4l2 1l2 -1m-2 -2v6.5l3 1.72" transform="rotate(180 12 12)"/><path d="M10 4l2 1l2 -1m-2 -2v6.5l3 1.72" transform="rotate(240 12 12)"/><path d="M10 4l2 1l2 -1m-2 -2v6.5l3 1.72" transform="rotate(300 12 12)"/></g>
  
  
  
  
  
  
  
</svg>